<svg width="199" height="33" viewBox="0 0 199 33" fill="none" xmlns="http://www.w3.org/2000/svg">
<path d="M20.334 2.516V22.592C20.334 25.7 19.452 28.094 17.688 29.774C15.952 31.454 13.6 32.294 10.632 32.294C7.524 32.294 5.032 31.412 3.156 29.648C1.28 27.884 0.342 25.378 0.342 22.13H7.482C7.482 23.362 7.734 24.3 8.238 24.944C8.742 25.56 9.47 25.868 10.422 25.868C11.29 25.868 11.962 25.588 12.438 25.028C12.914 24.468 13.152 23.656 13.152 22.592V2.516H20.334ZM48.2272 19.904C48.2272 20.576 48.1853 21.276 48.1013 22.004H31.8473C31.9593 23.46 32.4213 24.58 33.2333 25.364C34.0733 26.12 35.0953 26.498 36.2993 26.498C38.0913 26.498 39.3373 25.742 40.0373 24.23H47.6813C47.2893 25.77 46.5753 27.156 45.5393 28.388C44.5313 29.62 43.2573 30.586 41.7173 31.286C40.1773 31.986 38.4553 32.336 36.5513 32.336C34.2553 32.336 32.2113 31.846 30.4193 30.866C28.6273 29.886 27.2273 28.486 26.2193 26.666C25.2113 24.846 24.7073 22.718 24.7073 20.282C24.7073 17.846 25.1973 15.718 26.1773 13.898C27.1853 12.078 28.5853 10.678 30.3773 9.698C32.1693 8.718 34.2273 8.228 36.5513 8.228C38.8193 8.228 40.8353 8.704 42.5993 9.656C44.3633 10.608 45.7353 11.966 46.7153 13.73C47.7233 15.494 48.2272 17.552 48.2272 19.904ZM40.8773 18.014C40.8773 16.782 40.4573 15.802 39.6173 15.074C38.7773 14.346 37.7273 13.982 36.4673 13.982C35.2633 13.982 34.2413 14.332 33.4013 15.032C32.5893 15.732 32.0853 16.726 31.8893 18.014H40.8773ZM50.5881 20.24C50.5881 17.832 51.0361 15.718 51.9321 13.898C52.8561 12.078 54.1021 10.678 55.6701 9.698C57.2381 8.718 58.9881 8.228 60.9201 8.228C62.5721 8.228 64.0141 8.564 65.2461 9.236C66.5061 9.908 67.4721 10.79 68.1441 11.882V8.564H75.3261V32H68.1441V28.682C67.4441 29.774 66.4641 30.656 65.2041 31.328C63.9721 32 62.5301 32.336 60.8781 32.336C58.9741 32.336 57.2381 31.846 55.6701 30.866C54.1021 29.858 52.8561 28.444 51.9321 26.624C51.0361 24.776 50.5881 22.648 50.5881 20.24ZM68.1441 20.282C68.1441 18.49 67.6401 17.076 66.6321 16.04C65.6521 15.004 64.4481 14.486 63.0201 14.486C61.5921 14.486 60.3741 15.004 59.3661 16.04C58.3861 17.048 57.8961 18.448 57.8961 20.24C57.8961 22.032 58.3861 23.46 59.3661 24.524C60.3741 25.56 61.5921 26.078 63.0201 26.078C64.4481 26.078 65.6521 25.56 66.6321 24.524C67.6401 23.488 68.1441 22.074 68.1441 20.282ZM94.802 8.312C97.546 8.312 99.73 9.208 101.354 11C103.006 12.764 103.832 15.2 103.832 18.308V32H96.692V19.274C96.692 17.706 96.286 16.488 95.474 15.62C94.662 14.752 93.57 14.318 92.198 14.318C90.826 14.318 89.734 14.752 88.922 15.62C88.11 16.488 87.704 17.706 87.704 19.274V32H80.522V8.564H87.704V11.672C88.432 10.636 89.412 9.824 90.644 9.236C91.876 8.62 93.262 8.312 94.802 8.312ZM112.183 32.336C110.923 32.336 109.887 31.972 109.075 31.244C108.291 30.488 107.899 29.564 107.899 28.472C107.899 27.352 108.291 26.414 109.075 25.658C109.887 24.902 110.923 24.524 112.183 24.524C113.415 24.524 114.423 24.902 115.207 25.658C116.019 26.414 116.425 27.352 116.425 28.472C116.425 29.564 116.019 30.488 115.207 31.244C114.423 31.972 113.415 32.336 112.183 32.336ZM119.248 20.24C119.248 17.832 119.696 15.718 120.592 13.898C121.516 12.078 122.762 10.678 124.33 9.698C125.898 8.718 127.648 8.228 129.58 8.228C131.12 8.228 132.52 8.55 133.78 9.194C135.068 9.838 136.076 10.706 136.804 11.798V0.92H143.986V32H136.804V28.64C136.132 29.76 135.166 30.656 133.906 31.328C132.674 32 131.232 32.336 129.58 32.336C127.648 32.336 125.898 31.846 124.33 30.866C122.762 29.858 121.516 28.444 120.592 26.624C119.696 24.776 119.248 22.648 119.248 20.24ZM136.804 20.282C136.804 18.49 136.3 17.076 135.292 16.04C134.312 15.004 133.108 14.486 131.68 14.486C130.252 14.486 129.034 15.004 128.026 16.04C127.046 17.048 126.556 18.448 126.556 20.24C126.556 22.032 127.046 23.46 128.026 24.524C129.034 25.56 130.252 26.078 131.68 26.078C133.108 26.078 134.312 25.56 135.292 24.524C136.3 23.488 136.804 22.074 136.804 20.282ZM171.274 19.904C171.274 20.576 171.232 21.276 171.148 22.004H154.894C155.006 23.46 155.468 24.58 156.28 25.364C157.12 26.12 158.142 26.498 159.346 26.498C161.138 26.498 162.384 25.742 163.084 24.23H170.728C170.336 25.77 169.622 27.156 168.586 28.388C167.578 29.62 166.304 30.586 164.764 31.286C163.224 31.986 161.502 32.336 159.598 32.336C157.302 32.336 155.258 31.846 153.466 30.866C151.674 29.886 150.274 28.486 149.266 26.666C148.258 24.846 147.754 22.718 147.754 20.282C147.754 17.846 148.244 15.718 149.224 13.898C150.232 12.078 151.632 10.678 153.424 9.698C155.216 8.718 157.274 8.228 159.598 8.228C161.866 8.228 163.882 8.704 165.646 9.656C167.41 10.608 168.782 11.966 169.762 13.73C170.77 15.494 171.274 17.552 171.274 19.904ZM163.924 18.014C163.924 16.782 163.504 15.802 162.664 15.074C161.824 14.346 160.774 13.982 159.514 13.982C158.31 13.982 157.288 14.332 156.448 15.032C155.636 15.732 155.132 16.726 154.936 18.014H163.924ZM185.605 25.28L190.687 8.564H198.331L190.015 32H181.153L172.837 8.564H180.523L185.605 25.28Z" fill="#51565F"/>
</svg>
