<svg width="199" height="33" viewBox="0 0 199 33" fill="none" xmlns="http://www.w3.org/2000/svg">
 <path d="M20.8482 2.516V22.592C20.8482 25.7 19.9662 28.094 18.2022 29.774C16.4662 31.454 14.1142 32.294 11.1462 32.294C8.03818 32.294 5.54618 31.412 3.67018 29.648C1.79418 27.884 0.856175 25.378 0.856175 22.13H7.99618C7.99618 23.362 8.24818 24.3 8.75218 24.944C9.25618 25.56 9.98418 25.868 10.9362 25.868C11.8042 25.868 12.4762 25.588 12.9522 25.028C13.4282 24.468 13.6662 23.656 13.6662 22.592V2.516H20.8482ZM48.7414 19.904C48.7414 20.576 48.6994 21.276 48.6154 22.004H32.3614C32.4734 23.46 32.9354 24.58 33.7474 25.364C34.5874 26.12 35.6094 26.498 36.8134 26.498C38.6054 26.498 39.8514 25.742 40.5514 24.23H48.1954C47.8034 25.77 47.0894 27.156 46.0534 28.388C45.0454 29.62 43.7714 30.586 42.2314 31.286C40.6914 31.986 38.9694 32.336 37.0654 32.336C34.7694 32.336 32.7254 31.846 30.9334 30.866C29.1414 29.886 27.7414 28.486 26.7334 26.666C25.7254 24.846 25.2214 22.718 25.2214 20.282C25.2214 17.846 25.7114 15.718 26.6914 13.898C27.6994 12.078 29.0994 10.678 30.8914 9.698C32.6834 8.718 34.7414 8.228 37.0654 8.228C39.3334 8.228 41.3494 8.704 43.1134 9.656C44.8774 10.608 46.2494 11.966 47.2294 13.73C48.2374 15.494 48.7414 17.552 48.7414 19.904ZM41.3914 18.014C41.3914 16.782 40.9714 15.802 40.1314 15.074C39.2914 14.346 38.2414 13.982 36.9814 13.982C35.7774 13.982 34.7554 14.332 33.9154 15.032C33.1034 15.732 32.5994 16.726 32.4034 18.014H41.3914ZM51.1023 20.24C51.1023 17.832 51.5503 15.718 52.4463 13.898C53.3703 12.078 54.6163 10.678 56.1843 9.698C57.7523 8.718 59.5023 8.228 61.4343 8.228C63.0863 8.228 64.5283 8.564 65.7603 9.236C67.0203 9.908 67.9863 10.79 68.6583 11.882V8.564H75.8403V32H68.6583V28.682C67.9583 29.774 66.9783 30.656 65.7183 31.328C64.4863 32 63.0443 32.336 61.3923 32.336C59.4883 32.336 57.7523 31.846 56.1843 30.866C54.6163 29.858 53.3703 28.444 52.4463 26.624C51.5503 24.776 51.1023 22.648 51.1023 20.24ZM68.6583 20.282C68.6583 18.49 68.1543 17.076 67.1463 16.04C66.1663 15.004 64.9623 14.486 63.5343 14.486C62.1063 14.486 60.8883 15.004 59.8803 16.04C58.9003 17.048 58.4103 18.448 58.4103 20.24C58.4103 22.032 58.9003 23.46 59.8803 24.524C60.8883 25.56 62.1063 26.078 63.5343 26.078C64.9623 26.078 66.1663 25.56 67.1463 24.524C68.1543 23.488 68.6583 22.074 68.6583 20.282ZM95.3161 8.312C98.0601 8.312 100.244 9.208 101.868 11C103.52 12.764 104.346 15.2 104.346 18.308V32H97.2061V19.274C97.2061 17.706 96.8001 16.488 95.9881 15.62C95.1761 14.752 94.0841 14.318 92.7121 14.318C91.3401 14.318 90.2481 14.752 89.4361 15.62C88.6241 16.488 88.2181 17.706 88.2181 19.274V32H81.0361V8.564H88.2181V11.672C88.9461 10.636 89.9261 9.824 91.1581 9.236C92.3901 8.62 93.7761 8.312 95.3161 8.312ZM112.697 32.336C111.437 32.336 110.401 31.972 109.589 31.244C108.805 30.488 108.413 29.564 108.413 28.472C108.413 27.352 108.805 26.414 109.589 25.658C110.401 24.902 111.437 24.524 112.697 24.524C113.929 24.524 114.937 24.902 115.721 25.658C116.533 26.414 116.939 27.352 116.939 28.472C116.939 29.564 116.533 30.488 115.721 31.244C114.937 31.972 113.929 32.336 112.697 32.336ZM119.762 20.24C119.762 17.832 120.21 15.718 121.106 13.898C122.03 12.078 123.276 10.678 124.844 9.698C126.412 8.718 128.162 8.228 130.094 8.228C131.634 8.228 133.034 8.55 134.294 9.194C135.582 9.838 136.59 10.706 137.318 11.798V0.92H144.5V32H137.318V28.64C136.646 29.76 135.68 30.656 134.42 31.328C133.188 32 131.746 32.336 130.094 32.336C128.162 32.336 126.412 31.846 124.844 30.866C123.276 29.858 122.03 28.444 121.106 26.624C120.21 24.776 119.762 22.648 119.762 20.24ZM137.318 20.282C137.318 18.49 136.814 17.076 135.806 16.04C134.826 15.004 133.622 14.486 132.194 14.486C130.766 14.486 129.548 15.004 128.54 16.04C127.56 17.048 127.07 18.448 127.07 20.24C127.07 22.032 127.56 23.46 128.54 24.524C129.548 25.56 130.766 26.078 132.194 26.078C133.622 26.078 134.826 25.56 135.806 24.524C136.814 23.488 137.318 22.074 137.318 20.282ZM171.788 19.904C171.788 20.576 171.746 21.276 171.662 22.004H155.408C155.52 23.46 155.982 24.58 156.794 25.364C157.634 26.12 158.656 26.498 159.86 26.498C161.652 26.498 162.898 25.742 163.598 24.23H171.242C170.85 25.77 170.136 27.156 169.1 28.388C168.092 29.62 166.818 30.586 165.278 31.286C163.738 31.986 162.016 32.336 160.112 32.336C157.816 32.336 155.772 31.846 153.98 30.866C152.188 29.886 150.788 28.486 149.78 26.666C148.772 24.846 148.268 22.718 148.268 20.282C148.268 17.846 148.758 15.718 149.738 13.898C150.746 12.078 152.146 10.678 153.938 9.698C155.73 8.718 157.788 8.228 160.112 8.228C162.38 8.228 164.396 8.704 166.16 9.656C167.924 10.608 169.296 11.966 170.276 13.73C171.284 15.494 171.788 17.552 171.788 19.904ZM164.438 18.014C164.438 16.782 164.018 15.802 163.178 15.074C162.338 14.346 161.288 13.982 160.028 13.982C158.824 13.982 157.802 14.332 156.962 15.032C156.15 15.732 155.646 16.726 155.45 18.014H164.438ZM186.119 25.28L191.201 8.564H198.845L190.529 32H181.667L173.351 8.564H181.037L186.119 25.28Z" fill="#F0F1F5"/>
</svg>
